<svg id="Layer_1" data-name="Layer 1" xmlns="http://www.w3.org/2000/svg" viewBox="0 0 100 100">
  <title>Assembly_Group_Hexagon</title>
  <g>
    <path d="M54.34,50.14a7.21,7.21,0,0,0-4.52-1.27,7.2,7.2,0,0,0-4.34,1.27c-.63.36-.63,1.36-.63,2.8,0,2.8.36,7,.9,8.22.18.9,1.63,1.63,4.16,1.63s4-.72,4.16-1.63c.54-1.17,1.09-5.87,1.09-8.41C55.15,51.4,55,50.5,54.34,50.14Z"/>
    <path d="M50,4.89,8.79,19.77V80.23L50,95.11,91.21,80.23V19.77Zm5.24,22.92a6.37,6.37,0,0,1,4.52-1.9,7,7,0,0,1,4.88,1.9,3.41,3.41,0,0,1,.72,2.44c0,2.89-.36,8-1.09,9.31-.45.63-1.81,1.63-4.34,1.63-2.71,0-4.07-1-4.34-1.63-.81-1.27-1-6.15-1-9C54.61,29.08,54.7,28.44,55.24,27.81Zm-20.52,0a6.58,6.58,0,0,1,4.61-1.9,6.76,6.76,0,0,1,4.79,1.9,3,3,0,0,1,.81,2.44c0,2.89-.45,8-1.17,9.31-.36.63-1.81,1.63-4.34,1.63s-4.07-1-4.34-1.63c-.72-1.27-1-6.15-1-9A4.12,4.12,0,0,1,34.73,27.81ZM63.56,74.09h-.45c-.27-3.71-2.08-7.32-4-7.86A56.73,56.73,0,0,0,50,65.41a56.72,56.72,0,0,0-9.13.81c-1.9.54-3.71,4.16-4,7.86h-.63c-7.59,0-11.21-3.25-11.21-9.4a22.2,22.2,0,0,1,.36-3.34L27.22,51c.81-4.43,3.34-7.23,9.94-7.23H62.83c6.6,0,9.13,2.8,9.94,7.23l1.81,10.3a23.51,23.51,0,0,1,.36,3.34C74.94,70.83,71.24,74.09,63.56,74.09Z"/>
  </g>
</svg>
