<?xml version="1.0" encoding="utf-8"?>
<!-- Generator: Adobe Illustrator 21.0.2, SVG Export Plug-In . SVG Version: 6.00 Build 0)  -->
<svg version="1.1" id="Layer_1" xmlns="http://www.w3.org/2000/svg" xmlns:xlink="http://www.w3.org/1999/xlink" x="0px" y="0px"
	 viewBox="0 0 100 100" style="enable-background:new 0 0 100 100;" xml:space="preserve">
<style type="text/css">
	.st0{fill:#FF0000;}
	.st1{fill:#FFFFFF;}
</style>
<title>octagono_rojo</title>
<g id="_Layer_">
	<path class="st0" d="M5,68.7V31.3L31.4,5h37.3L95,31.3v37.4L68.6,95H31.4L5,68.7z"/>
</g>
<g id="Layer_1_2_">
	<path class="st1" d="M29,48.4C29,40.1,34.7,36,40.9,36c6.2,0,10,4,10,8.1c0,4-2.5,6.2-5,6.2c-0.9,0-2-0.5-2.3-0.7v-0.4
		c0.2-0.2,0.5-0.6,0.5-1.2c0-0.8-0.6-1.6-1.8-1.6c-1.2,0-2.3,0.8-2.3,3.2c0,2.9,2.5,4.4,5.6,4.4c5.1,0,7.9-5.5,15.1-5.5
		c5.4,0,9.5,2.9,10.2,3.4V64H29V48.4z M71,48.4v-8.1l-7.8-3l-7.7,3v6c1.3-0.5,3-1,5.2-1C66.2,45.2,70.2,47.7,71,48.4z"/>
</g>
</svg>
