<?xml version="1.0" encoding="utf-8"?>
<!-- Generator: Adobe Illustrator 21.0.2, SVG Export Plug-In . SVG Version: 6.00 Build 0)  -->
<svg version="1.1" id="Layer_1" xmlns="http://www.w3.org/2000/svg" xmlns:xlink="http://www.w3.org/1999/xlink" x="0px" y="0px"
	 viewBox="0 0 100 100" style="enable-background:new 0 0 100 100;" xml:space="preserve">
<style type="text/css">
	.st0{fill:#FFFF00;}
</style>
<title>triangulo_amarillo</title>
<g id="_Layer_">
	<path class="st0" d="M49.8,10.8l45.4,78.4H4.8L49.8,10.8z"/>
</g>
<g id="Layer_1_1_">
	<path d="M32,63.7c0-7,4.8-10.4,10-10.4c5.2,0,8.4,3.3,8.4,6.8c0,3.4-2.1,5.2-4.2,5.2c-0.7,0-1.7-0.4-1.9-0.6v-0.3
		c0.2-0.1,0.4-0.5,0.4-1c0-0.6-0.5-1.4-1.5-1.4s-1.9,0.7-1.9,2.7c0,2.4,2.1,3.7,4.7,3.7c4.3,0,6.6-4.6,12.7-4.6c4.5,0,8,2.4,8.6,2.8
		v10.2H32V63.7z M67.2,63.7v-6.8l-6.5-2.5l-6.5,2.5v5c1.1-0.4,2.5-0.8,4.4-0.8C63.2,61,66.6,63.1,67.2,63.7z"/>
</g>
</svg>
